<svg version="1.1" id="Layer_1" xmlns="http://www.w3.org/2000/svg" xmlns:xlink="http://www.w3.org/1999/xlink" x="0px" y="0px"
	 width="100%" viewBox="0 0 512 512" enable-background="new 0 0 512 512" xml:space="preserve">
<path fill="#888888" opacity="1.000000" stroke="none" 
	d="
M0.999997,289.000000 
	C1.000000,267.979095 1.000000,246.958206 1.411040,225.606888 
	C2.866599,220.406357 4.142749,215.572739 4.916286,210.659973 
	C8.634226,187.047180 16.511639,164.796768 26.953747,143.418777 
	C36.340099,124.202202 48.017426,106.488373 62.092110,90.313126 
	C76.481300,73.776421 92.279343,58.817280 110.323006,46.379101 
	C125.706032,35.774998 142.006714,26.836447 159.396133,19.770119 
	C179.649185,11.540143 200.480301,5.849469 222.117188,2.932885 
	C223.146286,2.794165 224.042114,1.666907 225.000000,1.000004 
	C246.020889,1.000000 267.041779,1.000000 288.393127,1.411044 
	C289.395142,2.207889 290.023010,2.789886 290.744690,2.950565 
	C305.674042,6.274487 320.836121,8.780613 335.501343,13.011330 
	C359.187103,19.844362 381.197693,30.691040 401.300598,44.987637 
	C411.270264,52.077740 420.462067,60.261543 429.713440,68.246597 
	C427.429108,68.621429 425.437164,68.768845 423.445221,68.769112 
	C336.627869,68.780617 249.810471,68.826157 162.993195,68.743462 
	C143.232681,68.724640 123.732727,70.321831 104.929031,76.797241 
	C74.321365,87.337585 52.713661,107.235138 43.432968,138.697021 
	C36.236992,163.091629 36.092838,187.980164 42.072746,212.727158 
	C47.207184,233.975327 58.012684,251.653458 75.889267,264.774414 
	C98.301369,281.224335 124.068268,287.443665 151.068451,287.716278 
	C214.383804,288.355469 277.709534,287.944061 341.030945,288.044617 
	C346.840729,288.053833 352.680542,288.415466 358.453003,289.078552 
	C376.354004,291.134979 388.989899,302.066101 391.689117,319.205353 
	C393.040222,327.784698 393.104828,336.860291 391.968353,345.476257 
	C389.653229,363.027985 379.167938,373.600342 361.775818,376.832153 
	C355.122589,378.068481 348.202911,378.268921 341.404785,378.267456 
	C245.422516,378.246735 149.440247,378.109772 53.457985,378.001373 
	C51.370083,377.999023 49.282177,378.001099 46.937744,378.001099 
	C46.937744,380.753265 46.999115,382.742798 46.926132,384.727386 
	C46.714596,390.479523 46.449116,396.229614 45.849251,401.929138 
	C34.903210,387.212433 26.702467,371.287231 19.794121,354.584381 
	C11.438991,334.383575 5.845525,313.517029 2.932844,291.882202 
	C2.794333,290.853363 1.666891,289.957703 0.999997,289.000000 
z"/>
<path fill="#888888" opacity="1.000000" stroke="none" 
	d="
M289.000000,513.000000 
	C267.979095,513.000000 246.958206,513.000000 225.606293,512.588867 
	C220.412521,511.134155 215.582092,509.897339 210.681824,509.078247 
	C178.024353,503.619324 147.733063,491.817047 120.086098,473.816895 
	C107.392975,465.552765 95.934883,455.391754 84.378082,445.971100 
	C88.004082,445.825562 91.168694,445.783508 94.333389,445.776520 
	C184.459579,445.577423 274.586090,445.464661 364.711700,445.117249 
	C383.187775,445.046051 401.112762,441.378326 418.051697,433.800629 
	C446.465240,421.089661 464.691986,399.697052 472.179688,369.364807 
	C477.531311,347.685547 477.732727,325.774963 473.747528,303.959045 
	C468.874329,277.282166 456.088348,255.437973 432.700409,240.492981 
	C411.679016,227.060211 388.261108,221.511917 363.881073,221.281860 
	C300.742126,220.686081 237.594238,221.057022 174.450043,220.956253 
	C168.306412,220.946457 162.083603,220.853424 156.036835,219.908005 
	C142.264099,217.754654 130.254410,212.329590 124.876892,198.265015 
	C122.834549,192.923386 121.607971,186.984085 121.421028,181.270996 
	C120.792648,162.067230 125.671013,148.112183 142.731628,140.391983 
	C152.016403,136.190475 162.022400,135.733917 172.088486,135.752121 
	C263.222961,135.916931 354.357574,136.011368 445.492126,136.125977 
	C447.570221,136.128586 449.648285,136.126312 452.119873,136.126312 
	C452.119873,120.512901 452.119873,105.703461 452.417114,91.054718 
	C457.161957,96.860146 461.836884,102.342232 466.013397,108.180855 
	C477.453644,124.173988 486.816498,141.307419 494.280334,159.540909 
	C502.540894,179.720642 508.200256,200.526138 511.067993,222.125671 
	C511.204163,223.151215 512.333313,224.044907 513.000000,225.000000 
	C513.000000,246.020889 513.000000,267.041779 512.588867,288.393677 
	C511.133484,293.594818 509.857727,298.428497 509.084137,303.341248 
	C505.365906,326.953857 497.488678,349.204254 487.046509,370.582153 
	C477.660095,389.798584 465.982910,407.512360 451.908112,423.687408 
	C437.518951,440.223724 421.721405,455.182983 403.677948,467.621033 
	C388.294922,478.225128 371.994202,487.163330 354.605011,494.230042 
	C334.352142,502.460480 313.520569,508.148834 291.884399,511.067688 
	C290.854767,511.206604 289.958435,512.333313 289.000000,513.000000 
z"/>
<path fill="#000000" opacity="1.000000" stroke="none" 
	d="
M224.531342,1.000004 
	C224.042114,1.666907 223.146286,2.794165 222.117188,2.932885 
	C200.480301,5.849469 179.649185,11.540143 159.396133,19.770119 
	C142.006714,26.836447 125.706032,35.774998 110.323006,46.379101 
	C92.279343,58.817280 76.481300,73.776421 62.092110,90.313126 
	C48.017426,106.488373 36.340099,124.202202 26.953747,143.418777 
	C16.511639,164.796768 8.634226,187.047180 4.916286,210.659973 
	C4.142749,215.572739 2.866599,220.406357 1.411040,225.138229 
	C1.000000,150.406296 1.000000,75.812576 1.000000,1.000000 
	C75.354088,1.000000 149.708389,1.000000 224.531342,1.000004 
z"/>
<path fill="#000000" opacity="1.000000" stroke="none" 
	d="
M289.468689,513.000000 
	C289.958435,512.333313 290.854767,511.206604 291.884399,511.067688 
	C313.520569,508.148834 334.352142,502.460480 354.605011,494.230042 
	C371.994202,487.163330 388.294922,478.225128 403.677948,467.621033 
	C421.721405,455.182983 437.518951,440.223724 451.908112,423.687408 
	C465.982910,407.512360 477.660095,389.798584 487.046509,370.582153 
	C497.488678,349.204254 505.365906,326.953857 509.084137,303.341248 
	C509.857727,298.428497 511.133484,293.594818 512.588867,288.862366 
	C513.000000,363.593719 513.000000,438.187408 513.000000,513.000000 
	C438.645905,513.000000 364.291626,513.000000 289.468689,513.000000 
z"/>
<path fill="#000000" opacity="1.000000" stroke="none" 
	d="
M513.000000,224.531342 
	C512.333313,224.044907 511.204163,223.151215 511.067993,222.125671 
	C508.200256,200.526138 502.540894,179.720642 494.280334,159.540909 
	C486.816498,141.307419 477.453644,124.173988 466.013397,108.180855 
	C461.836884,102.342232 457.161957,96.860146 452.361816,90.595779 
	C452.009216,82.716545 452.009216,75.456947 452.009216,67.950546 
	C444.283020,67.950546 437.144409,67.950546 430.005798,67.950546 
	C420.462067,60.261543 411.270264,52.077740 401.300598,44.987637 
	C381.197693,30.691040 359.187103,19.844362 335.501343,13.011330 
	C320.836121,8.780613 305.674042,6.274487 290.744690,2.950565 
	C290.023010,2.789886 289.395142,2.207889 288.861786,1.411044 
	C363.593719,1.000000 438.187408,1.000000 513.000000,1.000000 
	C513.000000,75.354088 513.000000,149.708389 513.000000,224.531342 
z"/>
<path fill="#000000" opacity="1.000000" stroke="none" 
	d="
M83.916733,446.090942 
	C95.934883,455.391754 107.392975,465.552765 120.086098,473.816895 
	C147.733063,491.817047 178.024353,503.619324 210.681824,509.078247 
	C215.582092,509.897339 220.412521,511.134155 225.137634,512.588867 
	C150.406296,513.000000 75.812599,513.000000 1.000000,513.000000 
	C1.000000,438.645905 1.000000,364.291626 0.999997,289.468658 
	C1.666891,289.957703 2.794333,290.853363 2.932844,291.882202 
	C5.845525,313.517029 11.438991,334.383575 19.794121,354.584381 
	C26.702467,371.287231 34.903210,387.212433 45.834465,402.399536 
	C46.175240,417.189484 46.175240,431.457642 46.175240,446.090942 
	C58.979698,446.090942 71.448212,446.090942 83.916733,446.090942 
z"/>
<path fill="#FFFFFF" opacity="1.000000" stroke="none" 
	d="
M84.378082,445.971100 
	C71.448212,446.090942 58.979698,446.090942 46.175240,446.090942 
	C46.175240,431.457642 46.175240,417.189484 46.190022,402.450928 
	C46.449116,396.229614 46.714596,390.479523 46.926132,384.727386 
	C46.999115,382.742798 46.937744,380.753265 46.937744,378.001099 
	C49.282177,378.001099 51.370083,377.999023 53.457985,378.001373 
	C149.440247,378.109772 245.422516,378.246735 341.404785,378.267456 
	C348.202911,378.268921 355.122589,378.068481 361.775818,376.832153 
	C379.167938,373.600342 389.653229,363.027985 391.968353,345.476257 
	C393.104828,336.860291 393.040222,327.784698 391.689117,319.205353 
	C388.989899,302.066101 376.354004,291.134979 358.453003,289.078552 
	C352.680542,288.415466 346.840729,288.053833 341.030945,288.044617 
	C277.709534,287.944061 214.383804,288.355469 151.068451,287.716278 
	C124.068268,287.443665 98.301369,281.224335 75.889267,264.774414 
	C58.012684,251.653458 47.207184,233.975327 42.072746,212.727158 
	C36.092838,187.980164 36.236992,163.091629 43.432968,138.697021 
	C52.713661,107.235138 74.321365,87.337585 104.929031,76.797241 
	C123.732727,70.321831 143.232681,68.724640 162.993195,68.743462 
	C249.810471,68.826157 336.627869,68.780617 423.445221,68.769112 
	C425.437164,68.768845 427.429108,68.621429 429.713440,68.246597 
	C437.144409,67.950546 444.283020,67.950546 452.009216,67.950546 
	C452.009216,75.456947 452.009216,82.716545 452.064545,90.435089 
	C452.119873,105.703461 452.119873,120.512901 452.119873,136.126312 
	C449.648285,136.126312 447.570221,136.128586 445.492126,136.125977 
	C354.357574,136.011368 263.222961,135.916931 172.088486,135.752121 
	C162.022400,135.733917 152.016403,136.190475 142.731628,140.391983 
	C125.671013,148.112183 120.792648,162.067230 121.421028,181.270996 
	C121.607971,186.984085 122.834549,192.923386 124.876892,198.265015 
	C130.254410,212.329590 142.264099,217.754654 156.036835,219.908005 
	C162.083603,220.853424 168.306412,220.946457 174.450043,220.956253 
	C237.594238,221.057022 300.742126,220.686081 363.881073,221.281860 
	C388.261108,221.511917 411.679016,227.060211 432.700409,240.492981 
	C456.088348,255.437973 468.874329,277.282166 473.747528,303.959045 
	C477.732727,325.774963 477.531311,347.685547 472.179688,369.364807 
	C464.691986,399.697052 446.465240,421.089661 418.051697,433.800629 
	C401.112762,441.378326 383.187775,445.046051 364.711700,445.117249 
	C274.586090,445.464661 184.459579,445.577423 94.333389,445.776520 
	C91.168694,445.783508 88.004082,445.825562 84.378082,445.971100 
z"/>
</svg>